<?xml version="1.0" encoding="UTF-8" standalone="no"?>
<svg width="188px" height="56px" viewBox="0 0 188 56" version="1.1" xmlns="http://www.w3.org/2000/svg" xmlns:xlink="http://www.w3.org/1999/xlink" xmlns:sketch="http://www.bohemiancoding.com/sketch/ns">
    <!-- Generator: Sketch 3.5.1 (25234) - http://www.bohemiancoding.com/sketch -->
    <title>Group</title>
    <desc>Created with Sketch.</desc>
    <defs></defs>
    <g id="Page-1" stroke="none" stroke-width="1" fill="none" fill-rule="evenodd" sketch:type="MSPage">
        <g id="RCA" sketch:type="MSLayerGroup" transform="translate(-3.000000, -69.000000)" fill="#4F87BB">
            <g id="Group" transform="translate(3.000000, 69.000000)" sketch:type="MSShapeGroup">
                <path d="M144.442,1.566 L122.537,53.706 L147.739,53.706 L157.447,30.746 L157.447,10.249 L163.401,10.249 L163.401,53.706 L187.181,53.706 L187.181,1.566 L144.442,1.566" id="Fill-2"></path>
                <path d="M53.112,31.143 C56.173,29.753 57.724,25.294 57.724,17.877 C57.724,11.625 56.438,7.3 53.791,4.653 C51.07,1.932 47.394,1.566 44.157,1.566 L0.094,1.566 L0.094,53.706 L23.721,53.706 L23.721,9.718 L29.625,9.764 L29.625,31.536 L39.386,53.706 L64.624,53.706 L53.112,31.143" id="Fill-3"></path>
                <path d="M123.291,30.765 L97.541,30.765 L97.541,46.318 L91.663,46.318 L91.663,9.716 L97.541,9.716 L97.541,24.659 L123.291,24.659 L123.291,24.357 C123.291,14.028 122.703,8.523 119.361,5.181 C115.531,1.351 108.053,0.651 94.705,0.651 C81.09,0.651 73.93,1.333 70.064,5.211 C66.468,8.818 65.853,15.046 65.889,26.798 C65.93,39.895 66.581,46.409 70.327,50.39 C74.381,54.699 81.996,55.496 94.63,55.459 C106.85,55.424 114.73,54.669 118.847,50.911 C122.626,47.463 123.291,41.765 123.291,31.066 L123.291,30.765" id="Fill-4"></path>
            </g>
        </g>
    </g>
</svg>
